<?xml version="1.0" encoding="UTF-8" standalone="no"?>
<!-- Created with Inkscape (http://www.inkscape.org/) -->

<svg
   xmlns:dc="http://purl.org/dc/elements/1.1/"
   xmlns:cc="http://creativecommons.org/ns#"
   xmlns:rdf="http://www.w3.org/1999/02/22-rdf-syntax-ns#"
   xmlns:svg="http://www.w3.org/2000/svg"
   xmlns="http://www.w3.org/2000/svg"
   xmlns:sodipodi="http://sodipodi.sourceforge.net/DTD/sodipodi-0.dtd"
   xmlns:inkscape="http://www.inkscape.org/namespaces/inkscape"
   width="417.87305mm"
   height="227.25842mm"
   viewBox="0 0 417.87305 227.25842"
   version="1.1"
   id="svg8"
   inkscape:version="0.92.4 (unknown)"
   sodipodi:docname="5gdive-net-setup.svg">
  <defs
     id="defs2" />
  <sodipodi:namedview
     id="base"
     pagecolor="#ffffff"
     bordercolor="#666666"
     borderopacity="1.0"
     inkscape:pageopacity="0.0"
     inkscape:pageshadow="2"
     inkscape:zoom="0.175"
     inkscape:cx="259.25852"
     inkscape:cy="704.76979"
     inkscape:document-units="mm"
     inkscape:current-layer="layer1"
     showgrid="false"
     inkscape:window-width="1368"
     inkscape:window-height="704"
     inkscape:window-x="0"
     inkscape:window-y="27"
     inkscape:window-maximized="1"
     fit-margin-left="0"
     fit-margin-top="0"
     fit-margin-right="0"
     fit-margin-bottom="0" />
  <metadata
     id="metadata5">
    <rdf:RDF>
      <cc:Work
         rdf:about="">
        <dc:format>image/svg+xml</dc:format>
        <dc:type
           rdf:resource="http://purl.org/dc/dcmitype/StillImage" />
        <dc:title></dc:title>
      </cc:Work>
    </rdf:RDF>
  </metadata>
  <g
     inkscape:label="Capa 1"
     inkscape:groupmode="layer"
     id="layer1"
     transform="translate(-38.680882,-44.178713)">
    <path
       d="m 199.92636,216.99306 h -15.90591 l -5.3743,10.36685 v 15.60617 h 26.59471 v -15.60617 z"
       style="fill:#92cddc;fill-opacity:1;fill-rule:evenodd;stroke:none;stroke-width:0.96499997;stroke-miterlimit:10;stroke-dasharray:none"
       id="path882-0"
       inkscape:connector-curvature="0" />
    <path
       d="m 178.64615,227.35991 h 26.59471 m -5.3145,-10.36685 h -15.90591 l -5.3743,10.36685 v 15.60617 h 26.59471 v -15.60617 z"
       style="fill:none;stroke:#000000;stroke-width:0.96499997;stroke-linecap:round;stroke-linejoin:round;stroke-miterlimit:10;stroke-dasharray:none;stroke-opacity:1"
       id="path884-9"
       inkscape:connector-curvature="0" />
    <path
       d="m 193.14066,235.23007 5.1568,-3.08546 3.32521,-0.008 -1.7189,1.6918 h 2.0042 l 2.22939,-2.40728 -2.2219,-2.40725 h -2.0192 l 1.7114,1.68434 h -3.54289 l -6.2528,3.7413 -5.80241,-3.48046 h -3.5428 l 1.71139,-1.68433 h -2.0192 l -2.22929,2.4147 2.23689,2.40727 h 2.00401 l -1.7263,-1.69925 3.32509,0.008 4.72151,2.82462 -4.72151,2.83208 h -3.32509 l 1.7263,-1.69179 h -2.00401 l -2.23689,2.40725 2.22929,2.40725 h 2.0192 l -1.71139,-1.67689 h 3.5428 l 5.80241,-3.48045 6.2528,3.74132 h 3.54289 l -1.7114,1.68431 h 2.0192 l 2.2219,-2.40724 -2.22939,-2.41472 h -2.0042 l 1.7189,1.69926 -3.32521,-0.007 z"
       style="fill:#92cddc;fill-opacity:1;fill-rule:evenodd;stroke:none;stroke-width:0.96499997;stroke-miterlimit:10;stroke-dasharray:none"
       id="path886-1"
       inkscape:connector-curvature="0" />
    <path
       d="m 193.14066,235.23007 5.1568,-3.08546 3.32521,-0.008 -1.7189,1.6918 h 2.0042 l 2.22939,-2.40728 -2.2219,-2.40725 h -2.0192 l 1.7114,1.68434 h -3.54289 l -6.2528,3.7413 -5.80241,-3.48046 h -3.5428 l 1.71139,-1.68433 h -2.0192 l -2.22929,2.4147 2.23689,2.40727 h 2.00401 l -1.7263,-1.69925 3.32509,0.008 4.72151,2.82462 -4.72151,2.83208 h -3.32509 l 1.7263,-1.69179 h -2.00401 l -2.23689,2.40725 2.22929,2.40725 h 2.0192 l -1.71139,-1.67689 h 3.5428 l 5.80241,-3.48045 6.2528,3.74132 h 3.54289 l -1.7114,1.68431 h 2.0192 l 2.2219,-2.40724 -2.22939,-2.41472 h -2.0042 l 1.7189,1.69926 -3.32521,-0.007 z"
       style="fill:none;stroke:#000000;stroke-width:0.96499997;stroke-linecap:round;stroke-linejoin:round;stroke-miterlimit:10;stroke-dasharray:none;stroke-opacity:1"
       id="path888-9"
       inkscape:connector-curvature="0" />
    <path
       style="fill:#92cddc;fill-opacity:1;stroke:#000000;stroke-width:1.20000005;stroke-miterlimit:4;stroke-dasharray:none;stroke-opacity:1"
       d="m 41.48352,193.29028 c 0,-0.39868 -0.37452,-0.92158 -0.83229,-1.16201 -0.45777,-0.24041 -0.95459,-0.61979 -1.10406,-0.84305 -0.35505,-0.53032 -0.35505,-30.16435 0,-30.69468 0.80057,-1.19576 1.89095,-1.25423 23.39099,-1.25423 21.50004,0 22.59043,0.0584 23.39099,1.25423 0.14947,0.22326 0.27432,1.77556 0.27744,3.44954 l 0.005,3.04364 h -4.06898 -4.06899 v 4.42708 4.42708 h 4.06899 4.06898 v 1.84461 1.84463 h -4.80881 -4.80879 v 5.33869 5.33869 l 4.90128,0.10291 4.90128,0.10289 -1.00863,1.02271 -1.00863,1.02272 -6.94438,-0.10039 -6.9444,-0.1004 -0.10639,-3.41255 -0.1064,-3.41255 h -2.94538 -2.94537 v 3.50479 3.50477 h -1.46576 -1.46574 l -0.10639,-3.41255 -0.10639,-3.41253 h -5.17872 -5.17871 l -0.10639,3.41253 -0.10639,3.41255 h -1.09584 c -0.84924,0 -1.09584,0.16604 -1.09584,0.73784 0,0.4919 -0.24661,0.73786 -0.73981,0.73786 -0.49321,0 -0.73982,-0.24596 -0.73982,-0.73786 0,-0.49189 -0.24661,-0.73784 -0.73982,-0.73784 -0.49322,0 -0.7398,0.24595 -0.7398,0.73784 0,0.4919 -0.24662,0.73786 -0.73982,0.73786 -0.49322,0 -0.73983,-0.24596 -0.73983,-0.73786 0,-0.49189 -0.2466,-0.73784 -0.7398,-0.73784 -0.49321,0 -0.73982,0.24595 -0.73982,0.73784 0,0.4919 -0.24661,0.73786 -0.73982,0.73786 -0.4888,0 -0.73981,-0.24596 -0.73981,-0.72488 z m 2.36883,-3.4462 c 0.94317,-0.68782 0.65276,-2.25013 -0.44717,-2.40564 -1.63611,-0.23133 -2.46144,1.18965 -1.34038,2.30773 0.70642,0.70454 0.93831,0.71725 1.78755,0.0979 z m 31.22245,-1.29537 c -0.0885,-0.76348 -0.34148,-1.01586 -1.10701,-1.10407 -1.45461,-0.1676 -2.07661,1.1117 -1.04213,2.14343 1.03449,1.03172 2.31719,0.41139 2.14914,-1.03936 z m -30.63201,-6.15465 c 0,-0.67637 -0.1973,-0.92232 -0.73982,-0.92232 -0.49322,0 -0.73982,-0.24594 -0.73982,-0.73785 0,-0.4919 0.2466,-0.73785 0.73982,-0.73785 0.49321,0 0.73982,-0.24595 0.73982,-0.73784 0,-0.4919 -0.24661,-0.73786 -0.73982,-0.73786 -0.49322,0 -0.73982,-0.24594 -0.73982,-0.73785 0,-0.49188 0.2466,-0.73783 0.73982,-0.73783 0.49321,0 0.73982,-0.24595 0.73982,-0.73786 0,-0.4919 -0.24661,-0.73785 -0.73982,-0.73785 -0.49322,0 -0.73982,-0.24595 -0.73982,-0.73784 0,-0.4919 0.2466,-0.73785 0.73982,-0.73785 0.49321,0 0.73982,-0.24595 0.73982,-0.73785 0,-0.61487 -0.24661,-0.73784 -1.47964,-0.73784 h -1.47963 v 5.3494 5.34939 h 1.47963 c 1.33167,0 1.47964,-0.0922 1.47964,-0.9223 z m 5.91852,-1.49411 v -2.41643 l -2.12697,0.11072 -2.12697,0.11071 -0.11465,1.79774 c -0.16829,2.63999 -0.0249,2.8138 2.32244,2.8138 h 2.0461 z m -2.7479,0.7299 c -0.74394,-0.74196 -0.33292,-1.63381 0.75298,-1.63381 0.68704,0 0.88519,0.19762 0.88519,0.88283 0,1.08304 -0.89421,1.49294 -1.63817,0.75098 z m 2.00807,-9.7724 v -5.18721 l -1.38406,0.11448 c -0.9673,0.08 -1.42102,0.3089 -1.50676,0.76012 -0.0849,0.44661 0.11366,0.64562 0.64425,0.64562 0.52034,0 0.76695,0.23725 0.76695,0.73784 0,0.4919 -0.24661,0.73785 -0.73982,0.73785 -0.49322,0 -0.7398,0.24595 -0.7398,0.73785 0,0.49188 0.24658,0.73784 0.7398,0.73784 0.47794,0 0.73982,0.24595 0.73982,0.69482 0,0.38455 -0.33037,0.78098 -0.73982,0.88778 -0.4069,0.1061 -0.7398,0.45751 -0.7398,0.78087 0,0.34197 0.30947,0.58792 0.7398,0.58792 0.47794,0 0.73982,0.24596 0.73982,0.69482 0,0.38456 -0.33037,0.78099 -0.73982,0.88778 -0.4069,0.10611 -0.7398,0.45752 -0.7398,0.78087 0,0.43996 0.37236,0.58793 1.47962,0.58793 h 1.47962 z m 16.64585,1.86689 v -3.32031 H 63.7943 c -3.48823,0 -4.18531,0.68661 -4.18531,4.12246 v 2.51817 h 3.32917 3.32917 z m -22.56436,-3.68925 c 0,-0.98379 -0.12331,-1.10677 -1.10973,-1.10677 -0.98642,0 -1.10972,0.12298 -1.10972,1.10677 0,0.98381 0.12331,1.10677 1.10972,1.10677 0.98642,0 1.10973,-0.12298 1.10973,-1.10677 z m 0.14938,-5.64676 c 0.94317,-0.68781 0.65276,-2.25012 -0.44717,-2.40564 -1.63611,-0.23132 -2.46144,1.18965 -1.34038,2.30774 0.70642,0.70453 0.93831,0.71724 1.78755,0.0979 z m 31.22245,-1.29537 c -0.0885,-0.76348 -0.34148,-1.01586 -1.10701,-1.10406 -1.45461,-0.1676 -2.07661,1.11169 -1.04213,2.14342 1.03449,1.03172 2.31719,0.41139 2.14914,-1.03936 z m -26.37808,1.03936 c -0.12569,-0.20291 -0.46848,-0.36892 -0.76165,-0.36892 -0.29316,0 -0.53303,0.16601 -0.53303,0.36892 0,0.2029 0.34274,0.36892 0.76164,0.36892 0.41891,0 0.65878,-0.16602 0.53304,-0.36892 z m 2.95926,0 c -0.12569,-0.20291 -0.46848,-0.36892 -0.76165,-0.36892 -0.29316,0 -0.53302,0.16601 -0.53302,0.36892 0,0.2029 0.34273,0.36892 0.76164,0.36892 0.4189,0 0.65877,-0.16602 0.53303,-0.36892 z m 2.95927,0 c -0.12569,-0.20291 -0.46848,-0.36892 -0.76165,-0.36892 -0.29317,0 -0.53303,0.16601 -0.53303,0.36892 0,0.2029 0.34274,0.36892 0.76164,0.36892 0.41891,0 0.65876,-0.16602 0.53304,-0.36892 z m 2.95925,0 c -0.12569,-0.20291 -0.46847,-0.36892 -0.76165,-0.36892 -0.29316,0 -0.53303,0.16601 -0.53303,0.36892 0,0.2029 0.34274,0.36892 0.76164,0.36892 0.41891,0 0.65878,-0.16602 0.53304,-0.36892 z m 2.95926,0 c -0.12569,-0.20291 -0.46848,-0.36892 -0.76164,-0.36892 -0.29316,0 -0.53303,0.16601 -0.53303,0.36892 0,0.2029 0.34273,0.36892 0.76164,0.36892 0.4189,0 0.65877,-0.16602 0.53303,-0.36892 z m 2.95927,0 c -0.12569,-0.20291 -0.46849,-0.36892 -0.76165,-0.36892 -0.29318,0 -0.53303,0.16601 -0.53303,0.36892 0,0.2029 0.34274,0.36892 0.76164,0.36892 0.41891,0 0.65877,-0.16602 0.53304,-0.36892 z m 2.95924,0 c -0.12568,-0.20291 -0.46846,-0.36892 -0.76163,-0.36892 -0.29317,0 -0.53304,0.16601 -0.53304,0.36892 0,0.2029 0.34275,0.36892 0.76166,0.36892 0.4189,0 0.65876,-0.16602 0.53301,-0.36892 z m 2.95927,0 c -0.12569,-0.20291 -0.46848,-0.36892 -0.76164,-0.36892 -0.29317,0 -0.53303,0.16601 -0.53303,0.36892 0,0.2029 0.34274,0.36892 0.76164,0.36892 0.41891,0 0.65878,-0.16602 0.53303,-0.36892 z m -20.71482,-2.21354 c -0.12569,-0.20291 -0.46848,-0.36893 -0.76165,-0.36893 -0.29316,0 -0.53303,0.16602 -0.53303,0.36893 0,0.2029 0.34274,0.36892 0.76164,0.36892 0.41891,0 0.65878,-0.16602 0.53304,-0.36892 z m 2.95926,0 c -0.12569,-0.20291 -0.46848,-0.36893 -0.76165,-0.36893 -0.29316,0 -0.53302,0.16602 -0.53302,0.36893 0,0.2029 0.34273,0.36892 0.76164,0.36892 0.4189,0 0.65877,-0.16602 0.53303,-0.36892 z m 2.95927,0 c -0.12569,-0.20291 -0.46848,-0.36893 -0.76165,-0.36893 -0.29317,0 -0.53303,0.16602 -0.53303,0.36893 0,0.2029 0.34274,0.36892 0.76164,0.36892 0.41891,0 0.65876,-0.16602 0.53304,-0.36892 z m 2.95925,0 c -0.12569,-0.20291 -0.46847,-0.36893 -0.76165,-0.36893 -0.29316,0 -0.53303,0.16602 -0.53303,0.36893 0,0.2029 0.34274,0.36892 0.76164,0.36892 0.41891,0 0.65878,-0.16602 0.53304,-0.36892 z m 2.95926,0 c -0.12569,-0.20291 -0.46848,-0.36893 -0.76164,-0.36893 -0.29316,0 -0.53303,0.16602 -0.53303,0.36893 0,0.2029 0.34273,0.36892 0.76164,0.36892 0.4189,0 0.65877,-0.16602 0.53303,-0.36892 z m 2.95927,0 c -0.12569,-0.20291 -0.46849,-0.36893 -0.76165,-0.36893 -0.29318,0 -0.53303,0.16602 -0.53303,0.36893 0,0.2029 0.34274,0.36892 0.76164,0.36892 0.41891,0 0.65877,-0.16602 0.53304,-0.36892 z m 2.95924,0 c -0.12568,-0.20291 -0.46846,-0.36893 -0.76163,-0.36893 -0.29317,0 -0.53304,0.16602 -0.53304,0.36893 0,0.2029 0.34275,0.36892 0.76166,0.36892 0.4189,0 0.65876,-0.16602 0.53301,-0.36892 z m 2.95927,0 c -0.12569,-0.20291 -0.46848,-0.36893 -0.76164,-0.36893 -0.29317,0 -0.53303,0.16602 -0.53303,0.36893 0,0.2029 0.34274,0.36892 0.76164,0.36892 0.41891,0 0.65878,-0.16602 0.53303,-0.36892 z m -16.66891,31.61604 c -0.10737,-0.27895 -0.14605,-1.82065 -0.086,-3.42598 l 0.10905,-2.91878 3.80561,-0.10527 3.8056,-0.10527 -0.10653,3.42561 -0.10653,3.4256 -3.61304,0.10569 c -2.79823,0.0819 -3.65706,-0.008 -3.80819,-0.40153 z m 13.5247,-3.02445 v -3.50477 h 1.47964 1.47962 v 3.50477 3.50478 h -1.47962 -1.47964 z m 12.20694,-5.53385 v -3.87371 h 4.80881 4.80879 v 3.87371 3.87369 h -4.80879 -4.80881 z m 1.47965,-13.46572 v -2.95139 h 4.06897 4.06898 v 2.95139 2.95138 h -4.06898 -4.06897 z"
       id="path2046"
       inkscape:connector-curvature="0" />
    <path
       d="m 72.260372,216.99306 h -15.90582 l -5.37427,10.36685 v 15.60617 h 26.59456 v -15.60617 z"
       style="fill:#92cddc;fill-opacity:1;fill-rule:evenodd;stroke:none;stroke-width:0.96499997;stroke-miterlimit:10;stroke-dasharray:none"
       id="path882-0-3"
       inkscape:connector-curvature="0" />
    <path
       d="m 50.980282,227.35991 h 26.59456 m -5.31447,-10.36685 h -15.90582 l -5.37427,10.36685 v 15.60617 h 26.59456 v -15.60617 z"
       style="fill:none;stroke:#000000;stroke-width:0.96499997;stroke-linecap:round;stroke-linejoin:round;stroke-miterlimit:10;stroke-dasharray:none;stroke-opacity:1"
       id="path884-9-5"
       inkscape:connector-curvature="0" />
    <path
       d="m 65.474711,235.23007 5.15677,-3.08546 3.325192,-0.008 -1.718891,1.6918 h 2.004191 l 2.229375,-2.40728 -2.221888,-2.40725 h -2.019188 l 1.711391,1.68434 h -3.542869 l -6.252764,3.7413 -5.802377,-3.48046 h -3.542782 l 1.711381,-1.68433 h -2.019188 l -2.229278,2.4147 2.236878,2.40727 h 2.003998 l -1.726291,-1.69925 3.325072,0.008 4.721483,2.82462 -4.721483,2.83208 h -3.325072 l 1.726291,-1.69179 h -2.003998 l -2.236878,2.40725 2.229278,2.40725 h 2.019188 l -1.711381,-1.67689 h 3.542782 l 5.802377,-3.48045 6.252764,3.74132 h 3.542869 l -1.711391,1.68431 h 2.019188 l 2.221888,-2.40724 -2.229375,-2.41472 h -2.004191 l 1.718891,1.69926 -3.325192,-0.007 z"
       style="fill:#92cddc;fill-opacity:1;fill-rule:evenodd;stroke:none;stroke-width:0.96499997;stroke-miterlimit:10;stroke-dasharray:none"
       id="path886-1-6"
       inkscape:connector-curvature="0" />
    <path
       d="m 65.474711,235.23007 5.15677,-3.08546 3.325192,-0.008 -1.718891,1.6918 h 2.004191 l 2.229375,-2.40728 -2.221888,-2.40725 h -2.019188 l 1.711391,1.68434 h -3.542869 l -6.252764,3.7413 -5.802377,-3.48046 h -3.542782 l 1.711381,-1.68433 h -2.019188 l -2.229278,2.4147 2.236878,2.40727 h 2.003998 l -1.726291,-1.69925 3.325072,0.008 4.721483,2.82462 -4.721483,2.83208 h -3.325072 l 1.726291,-1.69179 h -2.003998 l -2.236878,2.40725 2.229278,2.40725 h 2.019188 l -1.711381,-1.67689 h 3.542782 l 5.802377,-3.48045 6.252764,3.74132 h 3.542869 l -1.711391,1.68431 h 2.019188 l 2.221888,-2.40724 -2.229375,-2.41472 h -2.004191 l 1.718891,1.69926 -3.325192,-0.007 z"
       style="fill:none;stroke:#000000;stroke-width:0.96499997;stroke-linecap:round;stroke-linejoin:round;stroke-miterlimit:10;stroke-dasharray:none;stroke-opacity:1"
       id="path888-9-2"
       inkscape:connector-curvature="0" />
    <path
       d="m 308.07535,110.28112 h -15.90591 l -5.3743,10.36685 v 15.60617 h 26.59471 v -15.60617 z"
       style="fill:#92cddc;fill-opacity:1;fill-rule:evenodd;stroke:none;stroke-width:0.96499997;stroke-miterlimit:10;stroke-dasharray:none"
       id="path882-0-9"
       inkscape:connector-curvature="0" />
    <path
       d="m 286.79514,120.64797 h 26.59471 m -5.3145,-10.36685 h -15.90591 l -5.3743,10.36685 v 15.60617 h 26.59471 v -15.60617 z"
       style="fill:none;stroke:#000000;stroke-width:0.96499997;stroke-linecap:round;stroke-linejoin:round;stroke-miterlimit:10;stroke-dasharray:none;stroke-opacity:1"
       id="path884-9-1"
       inkscape:connector-curvature="0" />
    <path
       d="m 301.28965,128.51813 5.1568,-3.08546 3.32521,-0.008 -1.7189,1.6918 h 2.0042 l 2.22939,-2.40728 -2.2219,-2.40725 h -2.0192 l 1.7114,1.68434 h -3.54289 l -6.2528,3.7413 -5.80241,-3.48046 h -3.5428 l 1.71139,-1.68433 h -2.0192 l -2.22929,2.4147 2.23689,2.40727 h 2.00401 l -1.7263,-1.69925 3.32509,0.008 4.72151,2.82462 -4.72151,2.83208 h -3.32509 l 1.7263,-1.69179 h -2.00401 l -2.23689,2.40725 2.22929,2.40725 h 2.0192 l -1.71139,-1.67689 h 3.5428 l 5.80241,-3.48045 6.2528,3.74132 h 3.54289 l -1.7114,1.68431 h 2.0192 l 2.2219,-2.40724 -2.22939,-2.41472 h -2.0042 l 1.7189,1.69926 -3.32521,-0.007 z"
       style="fill:#92cddc;fill-opacity:1;fill-rule:evenodd;stroke:none;stroke-width:0.96499997;stroke-miterlimit:10;stroke-dasharray:none"
       id="path886-1-2"
       inkscape:connector-curvature="0" />
    <path
       d="m 301.28965,128.51813 5.1568,-3.08546 3.32521,-0.008 -1.7189,1.6918 h 2.0042 l 2.22939,-2.40728 -2.2219,-2.40725 h -2.0192 l 1.7114,1.68434 h -3.54289 l -6.2528,3.7413 -5.80241,-3.48046 h -3.5428 l 1.71139,-1.68433 h -2.0192 l -2.22929,2.4147 2.23689,2.40727 h 2.00401 l -1.7263,-1.69925 3.32509,0.008 4.72151,2.82462 -4.72151,2.83208 h -3.32509 l 1.7263,-1.69179 h -2.00401 l -2.23689,2.40725 2.22929,2.40725 h 2.0192 l -1.71139,-1.67689 h 3.5428 l 5.80241,-3.48045 6.2528,3.74132 h 3.54289 l -1.7114,1.68431 h 2.0192 l 2.2219,-2.40724 -2.22939,-2.41472 h -2.0042 l 1.7189,1.69926 -3.32521,-0.007 z"
       style="fill:none;stroke:#000000;stroke-width:0.96499997;stroke-linecap:round;stroke-linejoin:round;stroke-miterlimit:10;stroke-dasharray:none;stroke-opacity:1"
       id="path888-9-7"
       inkscape:connector-curvature="0" />
    <path
       d="m 160.80652,96.286009 -14.4378,-38.280877 -14.2908,38.248127 2.2043,0.0137 0.698,-1.88173 11.3885,-6.354474 11.2539,6.006524 0.8327,2.22968 z m -14.4622,-20.227394 6.5147,5.95073 -6.5025,3.628905 -6.4413,-3.507655 z m -5.278,2.10238 1.9349,-5.16141 1.7878,1.63801 z m 6.8087,-3.54763 1.8246,-1.7217 1.9226,5.1481 z m 1.0164,-3.85437 -2.5716,2.43337 -2.5226,-2.31094 2.5715,-6.86856 z m -12.7723,20.5911 2.7675,-7.39475 5.3024,2.888076 z m 12.4171,-4.527304 5.278,-2.947466 2.7431,7.3196 z"
       style="fill:#92cddc;fill-opacity:1;stroke:#000000;stroke-width:1.09399998;stroke-linecap:round;stroke-linejoin:round;stroke-miterlimit:10;stroke-dasharray:none;stroke-opacity:1"
       id="path924"
       inkscape:connector-curvature="0" />
    <path
       d="m 155.56532,54.087651 c 0,3.23244 -1.6899,6.078094 -4.237,7.734284 l 0.7593,1.54714 c 3.1226,-1.94117 5.2044,-5.371223 5.2044,-9.281424 0,-0.0137 0,-0.024 0,-0.0375 0,-0.0138 0,-0.0241 0,-0.0364 0,-3.910182 -2.0818,-7.334142 -5.2044,-9.286192 l -0.7593,1.55192 c 2.5471,1.655 4.237,4.500641 4.237,7.734272 0,0.0103 0,0.0206 0,0.0344 v 0 c 0,7.93e-4 0,0.003 0,0.003 0,7.94e-4 0,0.003 0,0.003 v 0 c 0,0.0103 0,0.0206 0,0.0344 z m -5.8657,-3.540381 c 0.9674,0.88631 1.5797,2.148461 1.5797,3.551311 0,1.4028 -0.6123,2.664981 -1.5797,3.550081 l 0.747,1.61254 c 1.543,-1.1918 2.5349,-3.037181 2.5593,-5.111721 v 0 c 0,-0.0138 0,-0.0275 0,-0.0399 0,-0.003 0,-0.007 0,-0.0103 0,-0.003 0,-0.007 0,-0.0103 0,-0.0137 0,-0.0275 0,-0.0412 v 0 c -0.025,-2.073301 -1.0163,-3.917432 -2.5593,-5.109272 z m -13.2621,3.540381 c 0,-0.0103 0,-0.024 0,-0.0344 v -0.007 c 0,-0.0103 0,-0.0206 0,-0.0344 0,-3.233642 1.6898,-6.079273 4.237,-7.734272 l -0.7593,-1.55189 c -3.1227,1.95205 -5.2044,5.37601 -5.2044,9.286202 0,0.0137 0,0.024 0,0.0364 0,0.0137 0,0.024 0,0.0375 0,3.910191 2.0817,7.340254 5.2044,9.281414 l 0.7593,-1.54712 c -2.5472,-1.6562 -4.237,-4.501854 -4.237,-7.734294 z m 6.0249,-3.540381 -0.7593,-1.610141 c -1.5307,1.19184 -2.5226,3.036001 -2.5471,5.109313 v 0 c 0,0.0137 0,0.0275 0,0.0412 0,0.003 0,0.007 0,0.0103 0,0.003 0,0.007 0,0.0103 0,0.0138 0,0.0275 0,0.0399 v 0 c 0.025,2.07451 1.0164,3.91989 2.5471,5.11174 l 0.7593,-1.61256 c -0.9674,-0.8851 -1.5798,-2.14727 -1.5798,-3.55011 0,-1.40281 0.6124,-2.664971 1.5798,-3.551271 z m 5.4126,3.569491 c 0,-0.96271 -0.7837,-1.742311 -1.7634,-1.742311 -0.9674,0 -1.7511,0.779601 -1.7511,1.742311 0,0.96148 0.7837,1.7423 1.7511,1.7423 0.9797,0 1.7634,-0.78082 1.7634,-1.7423 z"
       style="fill:#92cddc;fill-opacity:1;stroke:#000000;stroke-width:1.09399998;stroke-linecap:round;stroke-linejoin:round;stroke-miterlimit:10;stroke-dasharray:none;stroke-opacity:1"
       id="path928"
       inkscape:connector-curvature="0" />
    <path
       d="m 73.147187,146.40233 c 0,3.23244 -1.6899,6.07809 -4.237,7.73428 l 0.7593,1.54714 c 3.1226,-1.94117 5.2044,-5.37122 5.2044,-9.28142 0,-0.0137 0,-0.024 0,-0.0375 0,-0.0138 0,-0.0241 0,-0.0364 0,-3.91018 -2.0818,-7.33414 -5.2044,-9.28619 l -0.7593,1.55192 c 2.5471,1.655 4.237,4.50064 4.237,7.73427 0,0.0103 0,0.0206 0,0.0344 v 0 c 0,7.9e-4 0,0.003 0,0.003 0,7.9e-4 0,0.003 0,0.003 v 0 c 0,0.0103 0,0.0206 0,0.0344 z m -5.8657,-3.54038 c 0.9674,0.88631 1.5797,2.14846 1.5797,3.55131 0,1.4028 -0.6123,2.66498 -1.5797,3.55008 l 0.747,1.61254 c 1.543,-1.1918 2.5349,-3.03718 2.5593,-5.11172 v 0 c 0,-0.0138 0,-0.0275 0,-0.0399 0,-0.003 0,-0.007 0,-0.0103 0,-0.003 0,-0.007 0,-0.0103 0,-0.0137 0,-0.0275 0,-0.0412 v 0 c -0.025,-2.0733 -1.0163,-3.91743 -2.5593,-5.10927 z m -13.2621,3.54038 c 0,-0.0103 0,-0.024 0,-0.0344 v -0.007 c 0,-0.0103 0,-0.0206 0,-0.0344 0,-3.23364 1.6898,-6.07927 4.237,-7.73427 l -0.7593,-1.55189 c -3.1227,1.95205 -5.2044,5.37601 -5.2044,9.2862 0,0.0137 0,0.024 0,0.0364 0,0.0137 0,0.024 0,0.0375 0,3.91019 2.0817,7.34025 5.2044,9.28141 l 0.7593,-1.54712 c -2.5472,-1.6562 -4.237,-4.50185 -4.237,-7.73429 z m 6.0249,-3.54038 -0.7593,-1.61014 c -1.5307,1.19184 -2.5226,3.036 -2.5471,5.10931 v 0 c 0,0.0137 0,0.0275 0,0.0412 0,0.003 0,0.007 0,0.0103 0,0.003 0,0.007 0,0.0103 0,0.0138 0,0.0275 0,0.0399 v 0 c 0.025,2.07451 1.0164,3.91989 2.5471,5.11174 l 0.7593,-1.61256 c -0.9674,-0.8851 -1.5798,-2.14727 -1.5798,-3.55011 0,-1.40281 0.6124,-2.66497 1.5798,-3.55127 z m 5.4126,3.56949 c 0,-0.96271 -0.7837,-1.74231 -1.7634,-1.74231 -0.9674,0 -1.7511,0.7796 -1.7511,1.74231 0,0.96148 0.7837,1.7423 1.7511,1.7423 0.9797,0 1.7634,-0.78082 1.7634,-1.7423 z"
       style="fill:#92cddc;fill-opacity:1;stroke:#000000;stroke-width:1.09399998;stroke-linecap:round;stroke-linejoin:round;stroke-miterlimit:10;stroke-dasharray:none;stroke-opacity:1"
       id="path928-0"
       inkscape:connector-curvature="0" />
    <path
       style="fill:#92cddc;fill-opacity:1;stroke:#000000;stroke-width:1.20000005;stroke-miterlimit:4;stroke-dasharray:none;stroke-opacity:1"
       d="m 126.15038,193.29028 c 0,-0.39868 -0.37453,-0.92158 -0.8323,-1.16201 -0.45777,-0.24041 -0.95459,-0.61979 -1.10406,-0.84305 -0.35505,-0.53032 -0.35505,-30.16435 0,-30.69468 0.80057,-1.19576 1.89096,-1.25423 23.39112,-1.25423 21.50016,0 22.59056,0.0584 23.39112,1.25423 0.14947,0.22326 0.27432,1.77556 0.27744,3.44954 l 0.005,3.04364 h -4.069 -4.06901 v 4.42708 4.42708 h 4.06901 4.069 v 1.84461 1.84463 h -4.80884 -4.80881 v 5.33869 5.33869 l 4.9013,0.10291 4.90131,0.10289 -1.00863,1.02271 -1.00864,1.02272 -6.94442,-0.10039 -6.94444,-0.1004 -0.10639,-3.41255 -0.1064,-3.41255 h -2.94539 -2.94539 v 3.50479 3.50477 h -1.46577 -1.46575 l -0.10639,-3.41255 -0.10639,-3.41253 h -5.17875 -5.17874 l -0.10639,3.41253 -0.10639,3.41255 h -1.09585 c -0.84924,0 -1.09584,0.16604 -1.09584,0.73784 0,0.4919 -0.24661,0.73786 -0.73982,0.73786 -0.49321,0 -0.73982,-0.24596 -0.73982,-0.73786 0,-0.49189 -0.24661,-0.73784 -0.73982,-0.73784 -0.49323,0 -0.73981,0.24595 -0.73981,0.73784 0,0.4919 -0.24662,0.73786 -0.73982,0.73786 -0.49323,0 -0.73984,-0.24596 -0.73984,-0.73786 0,-0.49189 -0.2466,-0.73784 -0.7398,-0.73784 -0.49321,0 -0.73982,0.24595 -0.73982,0.73784 0,0.4919 -0.24662,0.73786 -0.73983,0.73786 -0.4888,0 -0.73981,-0.24596 -0.73981,-0.72488 z m 2.36884,-3.4462 c 0.94318,-0.68782 0.65277,-2.25013 -0.44717,-2.40564 -1.63612,-0.23133 -2.46146,1.18965 -1.34039,2.30773 0.70642,0.70454 0.93832,0.71725 1.78756,0.0979 z m 31.22263,-1.29537 c -0.0885,-0.76348 -0.34148,-1.01586 -1.10702,-1.10407 -1.45462,-0.1676 -2.07662,1.1117 -1.04214,2.14343 1.0345,1.03172 2.31721,0.41139 2.14916,-1.03936 z m -30.63218,-6.15465 c 0,-0.67637 -0.19731,-0.92232 -0.73983,-0.92232 -0.49322,0 -0.73982,-0.24594 -0.73982,-0.73785 0,-0.4919 0.2466,-0.73785 0.73982,-0.73785 0.49321,0 0.73983,-0.24595 0.73983,-0.73784 0,-0.4919 -0.24662,-0.73786 -0.73983,-0.73786 -0.49322,0 -0.73982,-0.24594 -0.73982,-0.73785 0,-0.49188 0.2466,-0.73783 0.73982,-0.73783 0.49321,0 0.73983,-0.24595 0.73983,-0.73786 0,-0.4919 -0.24662,-0.73785 -0.73983,-0.73785 -0.49322,0 -0.73982,-0.24595 -0.73982,-0.73784 0,-0.4919 0.2466,-0.73785 0.73982,-0.73785 0.49321,0 0.73983,-0.24595 0.73983,-0.73785 0,-0.61487 -0.24662,-0.73784 -1.47965,-0.73784 h -1.47964 v 5.3494 5.34939 h 1.47964 c 1.33167,0 1.47965,-0.0922 1.47965,-0.9223 z m 5.91855,-1.49411 v -2.41643 l -2.12698,0.11072 -2.12699,0.11071 -0.11465,1.79774 c -0.16829,2.63999 -0.0249,2.8138 2.32246,2.8138 h 2.04611 z m -2.74792,0.7299 c -0.74394,-0.74196 -0.33292,-1.63381 0.75299,-1.63381 0.68704,0 0.88519,0.19762 0.88519,0.88283 0,1.08304 -0.89421,1.49294 -1.63818,0.75098 z m 2.00808,-9.7724 v -5.18721 l -1.38406,0.11448 c -0.96731,0.08 -1.42103,0.3089 -1.50677,0.76012 -0.0849,0.44661 0.11366,0.64562 0.64425,0.64562 0.52034,0 0.76696,0.23725 0.76696,0.73784 0,0.4919 -0.24662,0.73785 -0.73983,0.73785 -0.49322,0 -0.7398,0.24595 -0.7398,0.73785 0,0.49188 0.24658,0.73784 0.7398,0.73784 0.47794,0 0.73983,0.24595 0.73983,0.69482 0,0.38455 -0.33038,0.78098 -0.73983,0.88778 -0.4069,0.1061 -0.7398,0.45751 -0.7398,0.78087 0,0.34197 0.30947,0.58792 0.7398,0.58792 0.47794,0 0.73983,0.24596 0.73983,0.69482 0,0.38456 -0.33038,0.78099 -0.73983,0.88778 -0.4069,0.10611 -0.7398,0.45752 -0.7398,0.78087 0,0.43996 0.37236,0.58793 1.47963,0.58793 h 1.47962 z m 16.64595,1.86689 v -3.32031 h -2.47305 c -3.48825,0 -4.18533,0.68661 -4.18533,4.12246 v 2.51817 h 3.32919 3.32919 z m -22.56449,-3.68925 c 0,-0.98379 -0.12331,-1.10677 -1.10974,-1.10677 -0.98642,0 -1.10972,0.12298 -1.10972,1.10677 0,0.98381 0.12331,1.10677 1.10972,1.10677 0.98643,0 1.10974,-0.12298 1.10974,-1.10677 z m 0.14938,-5.64676 c 0.94318,-0.68781 0.65277,-2.25012 -0.44717,-2.40564 -1.63612,-0.23132 -2.46146,1.18965 -1.34039,2.30774 0.70642,0.70453 0.93832,0.71724 1.78756,0.0979 z m 31.22263,-1.29537 c -0.0885,-0.76348 -0.34148,-1.01586 -1.10702,-1.10406 -1.45462,-0.1676 -2.07662,1.11169 -1.04214,2.14342 1.0345,1.03172 2.31721,0.41139 2.14916,-1.03936 z m -26.37823,1.03936 c -0.12569,-0.20291 -0.46848,-0.36892 -0.76166,-0.36892 -0.29316,0 -0.53303,0.16601 -0.53303,0.36892 0,0.2029 0.34274,0.36892 0.76165,0.36892 0.41891,0 0.65878,-0.16602 0.53304,-0.36892 z m 2.95927,0 c -0.12569,-0.20291 -0.46848,-0.36892 -0.76165,-0.36892 -0.29316,0 -0.53302,0.16601 -0.53302,0.36892 0,0.2029 0.34273,0.36892 0.76164,0.36892 0.4189,0 0.65877,-0.16602 0.53303,-0.36892 z m 2.95929,0 c -0.12569,-0.20291 -0.46848,-0.36892 -0.76165,-0.36892 -0.29317,0 -0.53304,0.16601 -0.53304,0.36892 0,0.2029 0.34275,0.36892 0.76165,0.36892 0.41891,0 0.65876,-0.16602 0.53304,-0.36892 z m 2.95927,0 c -0.12569,-0.20291 -0.46848,-0.36892 -0.76166,-0.36892 -0.29316,0 -0.53303,0.16601 -0.53303,0.36892 0,0.2029 0.34274,0.36892 0.76164,0.36892 0.41892,0 0.65879,-0.16602 0.53305,-0.36892 z m 2.95928,0 c -0.12569,-0.20291 -0.46849,-0.36892 -0.76165,-0.36892 -0.29316,0 -0.53303,0.16601 -0.53303,0.36892 0,0.2029 0.34273,0.36892 0.76164,0.36892 0.41891,0 0.65878,-0.16602 0.53304,-0.36892 z m 2.95928,0 c -0.12569,-0.20291 -0.46849,-0.36892 -0.76165,-0.36892 -0.29318,0 -0.53304,0.16601 -0.53304,0.36892 0,0.2029 0.34275,0.36892 0.76165,0.36892 0.41891,0 0.65877,-0.16602 0.53304,-0.36892 z m 2.95926,0 c -0.12568,-0.20291 -0.46846,-0.36892 -0.76164,-0.36892 -0.29317,0 -0.53304,0.16601 -0.53304,0.36892 0,0.2029 0.34275,0.36892 0.76167,0.36892 0.4189,0 0.65876,-0.16602 0.53301,-0.36892 z m 2.95929,0 c -0.1257,-0.20291 -0.46849,-0.36892 -0.76165,-0.36892 -0.29317,0 -0.53303,0.16601 -0.53303,0.36892 0,0.2029 0.34274,0.36892 0.76164,0.36892 0.41891,0 0.65879,-0.16602 0.53304,-0.36892 z m -20.71494,-2.21354 c -0.12569,-0.20291 -0.46848,-0.36893 -0.76166,-0.36893 -0.29316,0 -0.53303,0.16602 -0.53303,0.36893 0,0.2029 0.34274,0.36892 0.76165,0.36892 0.41891,0 0.65878,-0.16602 0.53304,-0.36892 z m 2.95927,0 c -0.12569,-0.20291 -0.46848,-0.36893 -0.76165,-0.36893 -0.29316,0 -0.53302,0.16602 -0.53302,0.36893 0,0.2029 0.34273,0.36892 0.76164,0.36892 0.4189,0 0.65877,-0.16602 0.53303,-0.36892 z m 2.95929,0 c -0.12569,-0.20291 -0.46848,-0.36893 -0.76165,-0.36893 -0.29317,0 -0.53304,0.16602 -0.53304,0.36893 0,0.2029 0.34275,0.36892 0.76165,0.36892 0.41891,0 0.65876,-0.16602 0.53304,-0.36892 z m 2.95927,0 c -0.12569,-0.20291 -0.46848,-0.36893 -0.76166,-0.36893 -0.29316,0 -0.53303,0.16602 -0.53303,0.36893 0,0.2029 0.34274,0.36892 0.76164,0.36892 0.41892,0 0.65879,-0.16602 0.53305,-0.36892 z m 2.95928,0 c -0.12569,-0.20291 -0.46849,-0.36893 -0.76165,-0.36893 -0.29316,0 -0.53303,0.16602 -0.53303,0.36893 0,0.2029 0.34273,0.36892 0.76164,0.36892 0.41891,0 0.65878,-0.16602 0.53304,-0.36892 z m 2.95928,0 c -0.12569,-0.20291 -0.46849,-0.36893 -0.76165,-0.36893 -0.29318,0 -0.53304,0.16602 -0.53304,0.36893 0,0.2029 0.34275,0.36892 0.76165,0.36892 0.41891,0 0.65877,-0.16602 0.53304,-0.36892 z m 2.95926,0 c -0.12568,-0.20291 -0.46846,-0.36893 -0.76164,-0.36893 -0.29317,0 -0.53304,0.16602 -0.53304,0.36893 0,0.2029 0.34275,0.36892 0.76167,0.36892 0.4189,0 0.65876,-0.16602 0.53301,-0.36892 z m 2.95929,0 c -0.1257,-0.20291 -0.46849,-0.36893 -0.76165,-0.36893 -0.29317,0 -0.53303,0.16602 -0.53303,0.36893 0,0.2029 0.34274,0.36892 0.76164,0.36892 0.41891,0 0.65879,-0.16602 0.53304,-0.36892 z m -16.66901,31.61604 c -0.10737,-0.27895 -0.14605,-1.82065 -0.086,-3.42598 l 0.10905,-2.91878 3.80563,-0.10527 3.80563,-0.10527 -0.10654,3.42561 -0.10653,3.4256 -3.61306,0.10569 c -2.79824,0.0819 -3.65708,-0.008 -3.80821,-0.40153 z m 13.52478,-3.02445 v -3.50477 h 1.47965 1.47962 v 3.50477 3.50478 h -1.47962 -1.47965 z m 12.20701,-5.53385 v -3.87371 h 4.80884 4.80881 v 3.87371 3.87369 h -4.80881 -4.80884 z M 164.621,171.5108 v -2.95139 h 4.06899 4.069 v 2.95139 2.95138 h -4.069 -4.06899 z"
       id="path2046-9"
       inkscape:connector-curvature="0" />
    <path
       d="m 157.81422,146.40233 c 0,3.23244 -1.6899,6.07809 -4.23702,7.73428 l 0.7593,1.54714 c 3.12262,-1.94117 5.20443,-5.37122 5.20443,-9.28142 0,-0.0137 0,-0.024 0,-0.0375 0,-0.0138 0,-0.0241 0,-0.0364 0,-3.91018 -2.08181,-7.33414 -5.20443,-9.28619 l -0.7593,1.55192 c 2.54712,1.655 4.23702,4.50064 4.23702,7.73427 0,0.0103 0,0.0206 0,0.0344 v 0 c 0,7.9e-4 0,0.003 0,0.003 0,7.9e-4 0,0.003 0,0.003 v 0 c 0,0.0103 0,0.0206 0,0.0344 z m -5.86573,-3.54038 c 0.9674,0.88631 1.57971,2.14846 1.57971,3.55131 0,1.4028 -0.61231,2.66498 -1.57971,3.55008 l 0.747,1.61254 c 1.54301,-1.1918 2.53492,-3.03718 2.55932,-5.11172 v 0 c 0,-0.0138 0,-0.0275 0,-0.0399 0,-0.003 0,-0.007 0,-0.0103 0,-0.003 0,-0.007 0,-0.0103 0,-0.0137 0,-0.0275 0,-0.0412 v 0 c -0.025,-2.0733 -1.01631,-3.91743 -2.55932,-5.10927 z m -13.26217,3.54038 c 0,-0.0103 0,-0.024 0,-0.0344 v -0.007 c 0,-0.0103 0,-0.0206 0,-0.0344 0,-3.23364 1.68981,-6.07927 4.23702,-7.73427 l -0.75931,-1.55189 c -3.12271,1.95205 -5.20443,5.37601 -5.20443,9.2862 0,0.0137 0,0.024 0,0.0364 0,0.0137 0,0.024 0,0.0375 0,3.91019 2.08172,7.34025 5.20443,9.28141 l 0.75931,-1.54712 c -2.54721,-1.6562 -4.23702,-4.50185 -4.23702,-7.73429 z m 6.02493,-3.54038 -0.7593,-1.61014 c -1.53071,1.19184 -2.52262,3.036 -2.54712,5.10931 v 0 c 0,0.0137 0,0.0275 0,0.0412 0,0.003 0,0.007 0,0.0103 0,0.003 0,0.007 0,0.0103 0,0.0138 0,0.0275 0,0.0399 v 0 c 0.025,2.07451 1.01641,3.91989 2.54712,5.11174 l 0.7593,-1.61256 c -0.96741,-0.8851 -1.57981,-2.14727 -1.57981,-3.55011 0,-1.40281 0.6124,-2.66497 1.57981,-3.55127 z m 5.41263,3.56949 c 0,-0.96271 -0.7837,-1.74231 -1.76341,-1.74231 -0.96741,0 -1.75111,0.7796 -1.75111,1.74231 0,0.96148 0.7837,1.7423 1.75111,1.7423 0.97971,0 1.76341,-0.78082 1.76341,-1.7423 z"
       style="fill:#92cddc;fill-opacity:1;stroke:#000000;stroke-width:1.09399998;stroke-linecap:round;stroke-linejoin:round;stroke-miterlimit:10;stroke-dasharray:none;stroke-opacity:1"
       id="path928-0-3"
       inkscape:connector-curvature="0" />
    <path
       style="fill:#92cddc;fill-opacity:1;stroke:#000000;stroke-width:1.20000005;stroke-miterlimit:4;stroke-dasharray:none;stroke-opacity:1"
       d="m 210.81739,193.29028 c 0,-0.39868 -0.37453,-0.92158 -0.8323,-1.16201 -0.45777,-0.24041 -0.95459,-0.61979 -1.10406,-0.84305 -0.35505,-0.53032 -0.35505,-30.16435 0,-30.69468 0.80057,-1.19576 1.89096,-1.25423 23.39112,-1.25423 21.50017,0 22.59057,0.0584 23.39113,1.25423 0.14947,0.22326 0.27432,1.77556 0.27744,3.44954 l 0.005,3.04364 h -4.069 -4.06901 v 4.42708 4.42708 h 4.06901 4.069 v 1.84461 1.84463 h -4.80884 -4.80881 v 5.33869 5.33869 l 4.9013,0.10291 4.90131,0.10289 -1.00863,1.02271 -1.00864,1.02272 -6.94442,-0.10039 -6.94444,-0.1004 -0.10639,-3.41255 -0.1064,-3.41255 h -2.9454 -2.94539 v 3.50479 3.50477 h -1.46577 -1.46575 l -0.10639,-3.41255 -0.10639,-3.41253 h -5.17875 -5.17874 l -0.10639,3.41253 -0.10639,3.41255 h -1.09585 c -0.84924,0 -1.09584,0.16604 -1.09584,0.73784 0,0.4919 -0.24661,0.73786 -0.73982,0.73786 -0.49321,0 -0.73982,-0.24596 -0.73982,-0.73786 0,-0.49189 -0.24661,-0.73784 -0.73982,-0.73784 -0.49323,0 -0.73981,0.24595 -0.73981,0.73784 0,0.4919 -0.24662,0.73786 -0.73982,0.73786 -0.49323,0 -0.73984,-0.24596 -0.73984,-0.73786 0,-0.49189 -0.2466,-0.73784 -0.7398,-0.73784 -0.49321,0 -0.73982,0.24595 -0.73982,0.73784 0,0.4919 -0.24662,0.73786 -0.73983,0.73786 -0.4888,0 -0.73981,-0.24596 -0.73981,-0.72488 z m 2.36884,-3.4462 c 0.94318,-0.68782 0.65277,-2.25013 -0.44717,-2.40564 -1.63612,-0.23133 -2.46146,1.18965 -1.34039,2.30773 0.70642,0.70454 0.93832,0.71725 1.78756,0.0979 z m 31.22264,-1.29537 c -0.0885,-0.76348 -0.34148,-1.01586 -1.10702,-1.10407 -1.45462,-0.1676 -2.07662,1.1117 -1.04214,2.14343 1.0345,1.03172 2.31721,0.41139 2.14916,-1.03936 z m -30.63219,-6.15465 c 0,-0.67637 -0.19731,-0.92232 -0.73983,-0.92232 -0.49322,0 -0.73982,-0.24594 -0.73982,-0.73785 0,-0.4919 0.2466,-0.73785 0.73982,-0.73785 0.49321,0 0.73983,-0.24595 0.73983,-0.73784 0,-0.4919 -0.24662,-0.73786 -0.73983,-0.73786 -0.49322,0 -0.73982,-0.24594 -0.73982,-0.73785 0,-0.49188 0.2466,-0.73783 0.73982,-0.73783 0.49321,0 0.73983,-0.24595 0.73983,-0.73786 0,-0.4919 -0.24662,-0.73785 -0.73983,-0.73785 -0.49322,0 -0.73982,-0.24595 -0.73982,-0.73784 0,-0.4919 0.2466,-0.73785 0.73982,-0.73785 0.49321,0 0.73983,-0.24595 0.73983,-0.73785 0,-0.61487 -0.24662,-0.73784 -1.47965,-0.73784 h -1.47964 v 5.3494 5.34939 h 1.47964 c 1.33167,0 1.47965,-0.0922 1.47965,-0.9223 z m 5.91855,-1.49411 v -2.41643 l -2.12698,0.11072 -2.12699,0.11071 -0.11465,1.79774 c -0.16829,2.63999 -0.0249,2.8138 2.32246,2.8138 h 2.04611 z m -2.74792,0.7299 c -0.74394,-0.74196 -0.33292,-1.63381 0.75299,-1.63381 0.68704,0 0.88519,0.19762 0.88519,0.88283 0,1.08304 -0.89421,1.49294 -1.63818,0.75098 z m 2.00808,-9.7724 v -5.18721 l -1.38406,0.11448 c -0.96731,0.08 -1.42103,0.3089 -1.50677,0.76012 -0.0849,0.44661 0.11366,0.64562 0.64425,0.64562 0.52034,0 0.76696,0.23725 0.76696,0.73784 0,0.4919 -0.24662,0.73785 -0.73983,0.73785 -0.49322,0 -0.7398,0.24595 -0.7398,0.73785 0,0.49188 0.24658,0.73784 0.7398,0.73784 0.47794,0 0.73983,0.24595 0.73983,0.69482 0,0.38455 -0.33038,0.78098 -0.73983,0.88778 -0.4069,0.1061 -0.7398,0.45751 -0.7398,0.78087 0,0.34197 0.30947,0.58792 0.7398,0.58792 0.47794,0 0.73983,0.24596 0.73983,0.69482 0,0.38456 -0.33038,0.78099 -0.73983,0.88778 -0.4069,0.10611 -0.7398,0.45752 -0.7398,0.78087 0,0.43996 0.37236,0.58793 1.47963,0.58793 h 1.47962 z m 16.64595,1.86689 v -3.32031 h -2.47305 c -3.48825,0 -4.18533,0.68661 -4.18533,4.12246 v 2.51817 h 3.32919 3.32919 z m -22.56449,-3.68925 c 0,-0.98379 -0.12331,-1.10677 -1.10974,-1.10677 -0.98642,0 -1.10972,0.12298 -1.10972,1.10677 0,0.98381 0.12331,1.10677 1.10972,1.10677 0.98643,0 1.10974,-0.12298 1.10974,-1.10677 z m 0.14938,-5.64676 c 0.94318,-0.68781 0.65277,-2.25012 -0.44717,-2.40564 -1.63612,-0.23132 -2.46146,1.18965 -1.34039,2.30774 0.70642,0.70453 0.93832,0.71724 1.78756,0.0979 z m 31.22264,-1.29537 c -0.0885,-0.76348 -0.34148,-1.01586 -1.10702,-1.10406 -1.45462,-0.1676 -2.07662,1.11169 -1.04214,2.14342 1.0345,1.03172 2.31721,0.41139 2.14916,-1.03936 z m -26.37824,1.03936 c -0.12569,-0.20291 -0.46848,-0.36892 -0.76166,-0.36892 -0.29316,0 -0.53303,0.16601 -0.53303,0.36892 0,0.2029 0.34274,0.36892 0.76165,0.36892 0.41891,0 0.65878,-0.16602 0.53304,-0.36892 z m 2.95927,0 c -0.12569,-0.20291 -0.46848,-0.36892 -0.76165,-0.36892 -0.29316,0 -0.53302,0.16601 -0.53302,0.36892 0,0.2029 0.34273,0.36892 0.76164,0.36892 0.4189,0 0.65877,-0.16602 0.53303,-0.36892 z m 2.95929,0 c -0.12569,-0.20291 -0.46848,-0.36892 -0.76165,-0.36892 -0.29317,0 -0.53304,0.16601 -0.53304,0.36892 0,0.2029 0.34275,0.36892 0.76165,0.36892 0.41891,0 0.65876,-0.16602 0.53304,-0.36892 z m 2.95927,0 c -0.12569,-0.20291 -0.46848,-0.36892 -0.76166,-0.36892 -0.29316,0 -0.53303,0.16601 -0.53303,0.36892 0,0.2029 0.34274,0.36892 0.76164,0.36892 0.41892,0 0.65879,-0.16602 0.53305,-0.36892 z m 2.95928,0 c -0.12569,-0.20291 -0.46849,-0.36892 -0.76165,-0.36892 -0.29316,0 -0.53303,0.16601 -0.53303,0.36892 0,0.2029 0.34273,0.36892 0.76164,0.36892 0.41891,0 0.65878,-0.16602 0.53304,-0.36892 z m 2.95928,0 c -0.12569,-0.20291 -0.46849,-0.36892 -0.76165,-0.36892 -0.29318,0 -0.53304,0.16601 -0.53304,0.36892 0,0.2029 0.34275,0.36892 0.76165,0.36892 0.41891,0 0.65877,-0.16602 0.53304,-0.36892 z m 2.95926,0 c -0.12568,-0.20291 -0.46846,-0.36892 -0.76164,-0.36892 -0.29317,0 -0.53304,0.16601 -0.53304,0.36892 0,0.2029 0.34275,0.36892 0.76167,0.36892 0.4189,0 0.65876,-0.16602 0.53301,-0.36892 z m 2.9593,0 c -0.1257,-0.20291 -0.46849,-0.36892 -0.76165,-0.36892 -0.29317,0 -0.53303,0.16601 -0.53303,0.36892 0,0.2029 0.34274,0.36892 0.76164,0.36892 0.41891,0 0.65879,-0.16602 0.53304,-0.36892 z m -20.71495,-2.21354 c -0.12569,-0.20291 -0.46848,-0.36893 -0.76166,-0.36893 -0.29316,0 -0.53303,0.16602 -0.53303,0.36893 0,0.2029 0.34274,0.36892 0.76165,0.36892 0.41891,0 0.65878,-0.16602 0.53304,-0.36892 z m 2.95927,0 c -0.12569,-0.20291 -0.46848,-0.36893 -0.76165,-0.36893 -0.29316,0 -0.53302,0.16602 -0.53302,0.36893 0,0.2029 0.34273,0.36892 0.76164,0.36892 0.4189,0 0.65877,-0.16602 0.53303,-0.36892 z m 2.95929,0 c -0.12569,-0.20291 -0.46848,-0.36893 -0.76165,-0.36893 -0.29317,0 -0.53304,0.16602 -0.53304,0.36893 0,0.2029 0.34275,0.36892 0.76165,0.36892 0.41891,0 0.65876,-0.16602 0.53304,-0.36892 z m 2.95927,0 c -0.12569,-0.20291 -0.46848,-0.36893 -0.76166,-0.36893 -0.29316,0 -0.53303,0.16602 -0.53303,0.36893 0,0.2029 0.34274,0.36892 0.76164,0.36892 0.41892,0 0.65879,-0.16602 0.53305,-0.36892 z m 2.95928,0 c -0.12569,-0.20291 -0.46849,-0.36893 -0.76165,-0.36893 -0.29316,0 -0.53303,0.16602 -0.53303,0.36893 0,0.2029 0.34273,0.36892 0.76164,0.36892 0.41891,0 0.65878,-0.16602 0.53304,-0.36892 z m 2.95928,0 c -0.12569,-0.20291 -0.46849,-0.36893 -0.76165,-0.36893 -0.29318,0 -0.53304,0.16602 -0.53304,0.36893 0,0.2029 0.34275,0.36892 0.76165,0.36892 0.41891,0 0.65877,-0.16602 0.53304,-0.36892 z m 2.95926,0 c -0.12568,-0.20291 -0.46846,-0.36893 -0.76164,-0.36893 -0.29317,0 -0.53304,0.16602 -0.53304,0.36893 0,0.2029 0.34275,0.36892 0.76167,0.36892 0.4189,0 0.65876,-0.16602 0.53301,-0.36892 z m 2.9593,0 c -0.1257,-0.20291 -0.46849,-0.36893 -0.76165,-0.36893 -0.29317,0 -0.53303,0.16602 -0.53303,0.36893 0,0.2029 0.34274,0.36892 0.76164,0.36892 0.41891,0 0.65879,-0.16602 0.53304,-0.36892 z m -16.66902,31.61604 c -0.10737,-0.27895 -0.14605,-1.82065 -0.086,-3.42598 l 0.10905,-2.91878 3.80563,-0.10527 3.80563,-0.10527 -0.10654,3.42561 -0.10653,3.4256 -3.61306,0.10569 c -2.79824,0.0819 -3.65708,-0.008 -3.80821,-0.40153 z m 13.52478,-3.02445 v -3.50477 h 1.47965 1.47963 v 3.50477 3.50478 h -1.47963 -1.47965 z m 12.20702,-5.53385 v -3.87371 h 4.80884 4.80881 v 3.87371 3.87369 h -4.80881 -4.80884 z m 1.47966,-13.46572 v -2.95139 h 4.06899 4.069 v 2.95139 2.95138 h -4.069 -4.06899 z"
       id="path2046-9-6"
       inkscape:connector-curvature="0" />
    <path
       d="m 242.48124,146.40233 c 0,3.23244 -1.6899,6.07809 -4.23702,7.73428 l 0.7593,1.54714 c 3.12262,-1.94117 5.20443,-5.37122 5.20443,-9.28142 0,-0.0137 0,-0.024 0,-0.0375 0,-0.0138 0,-0.0241 0,-0.0364 0,-3.91018 -2.08181,-7.33414 -5.20443,-9.28619 l -0.7593,1.55192 c 2.54712,1.655 4.23702,4.50064 4.23702,7.73427 0,0.0103 0,0.0206 0,0.0344 v 0 c 0,7.9e-4 0,0.003 0,0.003 0,7.9e-4 0,0.003 0,0.003 v 0 c 0,0.0103 0,0.0206 0,0.0344 z m -5.86574,-3.54038 c 0.96741,0.88631 1.57972,2.14846 1.57972,3.55131 0,1.4028 -0.61231,2.66498 -1.57972,3.55008 l 0.74701,1.61254 c 1.54301,-1.1918 2.53492,-3.03718 2.55932,-5.11172 v 0 c 0,-0.0138 0,-0.0275 0,-0.0399 0,-0.003 0,-0.007 0,-0.0103 0,-0.003 0,-0.007 0,-0.0103 0,-0.0137 0,-0.0275 0,-0.0412 v 0 c -0.025,-2.0733 -1.01631,-3.91743 -2.55932,-5.10927 z m -13.26217,3.54038 c 0,-0.0103 0,-0.024 0,-0.0344 v -0.007 c 0,-0.0103 0,-0.0206 0,-0.0344 0,-3.23364 1.68981,-6.07927 4.23702,-7.73427 l -0.75931,-1.55189 c -3.12271,1.95205 -5.20443,5.37601 -5.20443,9.2862 0,0.0137 0,0.024 0,0.0364 0,0.0137 0,0.024 0,0.0375 0,3.91019 2.08172,7.34025 5.20443,9.28141 l 0.75931,-1.54712 c -2.54721,-1.6562 -4.23702,-4.50185 -4.23702,-7.73429 z m 6.02493,-3.54038 -0.7593,-1.61014 c -1.53071,1.19184 -2.52262,3.036 -2.54712,5.10931 v 0 c 0,0.0137 0,0.0275 0,0.0412 0,0.003 0,0.007 0,0.0103 0,0.003 0,0.007 0,0.0103 0,0.0138 0,0.0275 0,0.0399 v 0 c 0.025,2.07451 1.01641,3.91989 2.54712,5.11174 l 0.7593,-1.61256 c -0.96741,-0.8851 -1.57981,-2.14727 -1.57981,-3.55011 0,-1.40281 0.6124,-2.66497 1.57981,-3.55127 z m 5.41263,3.56949 c 0,-0.96271 -0.7837,-1.74231 -1.76341,-1.74231 -0.96741,0 -1.75111,0.7796 -1.75111,1.74231 0,0.96148 0.7837,1.7423 1.75111,1.7423 0.97971,0 1.76341,-0.78082 1.76341,-1.7423 z"
       style="fill:#92cddc;fill-opacity:1;stroke:#000000;stroke-width:1.09399998;stroke-linecap:round;stroke-linejoin:round;stroke-miterlimit:10;stroke-dasharray:none;stroke-opacity:1"
       id="path928-0-3-2"
       inkscape:connector-curvature="0" />
    <rect
       style="opacity:1;fill:#92cddc;fill-opacity:1;fill-rule:evenodd;stroke:#000000;stroke-width:2.39400005;stroke-linecap:square;stroke-linejoin:round;stroke-miterlimit:10;stroke-dasharray:none;stroke-dashoffset:0;stroke-opacity:1;paint-order:stroke fill markers"
       id="rect2241"
       width="50.24667"
       height="27.261492"
       x="195.61978"
       y="60.884155" />
    <text
       xml:space="preserve"
       style="font-style:normal;font-variant:normal;font-weight:bold;font-stretch:normal;font-size:11.28888893px;line-height:1.25;font-family:'Deja Vu Sans';-inkscape-font-specification:'Deja Vu Sans Bold';font-variant-ligatures:normal;font-variant-position:normal;font-variant-caps:normal;font-variant-numeric:normal;font-variant-alternates:normal;font-feature-settings:normal;text-indent:0;text-align:start;text-decoration:none;text-decoration-line:none;text-decoration-style:solid;text-decoration-color:#000000;letter-spacing:0px;word-spacing:0px;text-transform:none;writing-mode:lr-tb;direction:ltr;text-orientation:mixed;dominant-baseline:auto;baseline-shift:baseline;text-anchor:start;white-space:normal;shape-padding:0;opacity:1;vector-effect:none;fill:#000000;fill-opacity:1;stroke:none;stroke-width:0.26458332;stroke-linecap:butt;stroke-linejoin:miter;stroke-miterlimit:4;stroke-dasharray:none;stroke-dashoffset:0;stroke-opacity:1"
       x="208.44872"
       y="79.593025"
       id="text2245"><tspan
         sodipodi:role="line"
         id="tspan2243"
         x="208.44872"
         y="79.593025"
         style="stroke-width:0.26458332">UPF</tspan></text>
    <path
       style="fill:none;stroke:#000000;stroke-width:1.86500001;stroke-linecap:butt;stroke-linejoin:miter;stroke-miterlimit:4;stroke-dasharray:none;stroke-opacity:1"
       d="m 63.915775,243.25176 v 19.65476 H 299.20595 V 136.66247"
       id="path2278"
       inkscape:connector-curvature="0" />
    <path
       style="fill:none;stroke:#000000;stroke-width:1.86500001;stroke-linecap:butt;stroke-linejoin:miter;stroke-miterlimit:4;stroke-dasharray:none;stroke-opacity:1"
       d="m 191.76125,243.35037 v 19.27679"
       id="path2282"
       inkscape:connector-curvature="0" />
    <path
       style="fill:none;stroke:#000000;stroke-width:1.86500001;stroke-linecap:butt;stroke-linejoin:miter;stroke-miterlimit:4;stroke-dasharray:none;stroke-opacity:1"
       d="M 64.572251,216.13609 V 194.40246"
       id="path2284"
       inkscape:connector-curvature="0" />
    <path
       style="fill:none;stroke:#000000;stroke-width:1.86500001;stroke-linecap:butt;stroke-linejoin:miter;stroke-miterlimit:4;stroke-dasharray:none;stroke-opacity:1"
       d="m 232.98584,195.31649 v 16.57071 h -37.15046 v 4.67722 m -6.54811,0.4009 v -4.94449 h -40.49133 v -18.44159"
       id="path2301"
       inkscape:connector-curvature="0" />
    <rect
       style="opacity:1;fill:#92cddc;fill-opacity:1;fill-rule:evenodd;stroke:#000000;stroke-width:1.86500013;stroke-linecap:square;stroke-linejoin:round;stroke-miterlimit:4;stroke-dasharray:none;stroke-dashoffset:0;stroke-opacity:1;paint-order:stroke fill markers"
       id="rect2303"
       width="111.71867"
       height="95.682503"
       x="343.90274"
       y="79.054253" />
    <path
       d="m 334.54834,140.5182 c -0.3657,-0.15591 -0.5911,-0.44106 -0.7018,-0.87318 -0.052,-0.22884 -0.077,-4.41313 -0.065,-14.46391 l 0.026,-14.14044 0.1894,-0.30173 c 0.103,-0.16098 0.5164,-0.68653 0.9181,-1.16212 0.77771,-0.91666 1.1975,-1.23883 1.77711,-1.37856 0.23819,-0.0511 2.64049,-0.0767 8.1678,-0.0511 l 7.8334,0.0255 0.3618,0.17005 c 0.2782,0.13163 0.5486,0.38612 1.1847,1.11484 0.4558,0.51777 0.9142,1.09053 1.0249,1.26822 l 0.2034,0.32218 0.026,14.14467 c 0.013,10.05116 0,14.2348 -0.064,14.45969 -0.1159,0.43596 -0.336,0.71593 -0.7017,0.87317 -0.2962,0.13289 -0.7108,0.13543 -10.0861,0.13543 -9.3793,0 -9.7946,-0.004 -10.0907,-0.13543 z m 19.58432,-15.13727 -0.013,-13.97947 h -18.96201 l -0.013,13.97947 -0.026,13.97951 h 19.03661 z m -9.8689,10.65716 c -0.3889,-0.10225 -0.64511,-0.31322 -0.82281,-0.65713 -0.2601,-0.5229 -0.1853,-1.04324 0.20341,-1.44261 0.29619,-0.2979 0.56139,-0.40785 0.98889,-0.40785 1.0198,0 1.6436,0.95504 1.20141,1.83678 -0.1764,0.3439 -0.45841,0.5651 -0.86921,0.67503 -0.3412,0.0896 -0.35789,0.0896 -0.70169,-0.004 z m -0.27041,-4.65411 c -1.2065,-0.70828 -0.7558,-2.41323 0.64,-2.41323 0.8704,0 1.4803,0.72871 1.3164,1.57353 -0.052,0.28765 -0.4056,0.7121 -0.7249,0.87063 -0.3,0.14831 -0.9529,0.1316 -1.231,-0.0385 z m -6.11051,-7.16081 c -0.2072,-0.10224 -0.3966,-0.27618 -0.4983,-0.45003 -0.1687,-0.2787 -0.1713,-0.30555 -0.1417,-2.4048 0.013,-1.16724 0.026,-2.1854 0.026,-2.26557 0,-0.0767 -0.01,-1.09052 -0.01,-2.24522 0,-2.01012 0,-2.10806 0.1545,-2.29906 0.2227,-0.2851 0.48671,-0.45896 0.82281,-0.5344 0.3889,-0.0896 12.4182,-0.0896 12.80741,0 0.3361,0.0767 0.6001,0.2493 0.82279,0.5344 0.1494,0.19056 0.15451,0.28894 0.15451,2.29906 0,1.15445 -0.01,2.16378 -0.01,2.24522 0,0.0767 0,1.09821 0.026,2.26557 0.026,2.09925 0.026,2.12558 -0.1417,2.4048 -0.103,0.17512 -0.291,0.34902 -0.4983,0.45003 l -0.331,0.17006 h -12.84372 z m 12.82072,-2.74592 v -1.62019 h -12.14032 v 3.23672 h 12.14032 z m 0,-4.57341 v -1.65434 h -12.14032 v 3.314 h 12.14032 z m 2.24849,-6.89769 c 0,-0.0385 -0.1326,-0.18274 -0.29999,-0.32346 l -0.30131,-0.26209 h -15.44491 l -0.3541,0.32217 -0.3489,0.32216 h 8.37121 c 4.80241,0.004 8.3763,-0.0256 8.3763,-0.064 z"
       style="fill:#000000;fill-opacity:1;fill-rule:nonzero;stroke:none;stroke-width:0.03527781"
       id="path888-5-1-6-1-5-3-0-6"
       inkscape:connector-curvature="0" />
    <path
       d="m 335.21104,128.91079 c 0.103,-5.63804 0.1713,-11.85382 0.1713,-13.80129 v -3.54301 h 18.64872 v 27.60743 h -18.98802 z m 10.38731,6.8863 c 1.33331,-1.28166 -0.5704,-3.15319 -1.9714,-1.93469 -0.5782,0.50371 -0.6001,1.04323 -0.064,1.77272 0.4725,0.64561 1.4536,0.72106 2.0418,0.16224 z m -0.1738,-4.47167 c 0.6361,-0.42831 0.7829,-1.55757 0.2652,-2.05386 -0.5047,-0.48327 -1.9623,-0.36436 -2.2666,0.18675 -0.3978,0.71336 -0.3309,1.20045 0.246,1.75646 0.6232,0.59833 0.994,0.61879 1.7543,0.11514 z m 6.3178,-7.23803 c 0.4288,-0.36946 0.4777,-0.86553 0.4777,-4.84933 0,-4.10771 -0.039,-4.47604 -0.52149,-4.93424 -0.49061,-0.47175 -0.86271,-0.50116 -6.93181,-0.50116 -5.38931,0 -6.51261,0.064 -6.99321,0.38993 -0.5614,0.37331 -0.5743,0.50884 -0.5743,5.08252 0,4.21345 0.052,4.72599 0.4507,4.95507 0.2743,0.15337 3.0494,0.2557 7.03811,0.25953 5.7695,0.009 6.6402,-0.0385 7.0554,-0.4027 z"
       style="fill:#92cddc;fill-opacity:1;fill-rule:evenodd;stroke:none;stroke-width:0.03527781"
       id="path890-6-8-5-1-6-1-7-2"
       inkscape:connector-curvature="0" />
    <path
       d="m 338.75014,121.5155 v -1.49338 h 11.91482 v 2.98253 h -11.91482 z"
       style="fill:#92cddc;fill-opacity:1;fill-rule:evenodd;stroke:none;stroke-width:0.03527781"
       id="path892-2-7-6-5-1-9-8-5"
       inkscape:connector-curvature="0" />
    <path
       d="m 338.75014,116.91264 v -1.61598 h 11.91482 v 3.23208 h -11.91482 z"
       style="fill:#92cddc;fill-opacity:1;fill-rule:evenodd;stroke:none;stroke-width:0.03527781"
       id="path894-9-9-9-9-1-4-6-4"
       inkscape:connector-curvature="0" />
    <path
       d="m 336.61595,109.75491 0.30909,-0.30555 h 15.40531 l 0.2473,0.24932 0.2485,0.24673 -4.8773,0.064 c -2.6815,0.0382 -6.4014,0.064 -8.2619,0.064 h -3.38371 z"
       style="fill:#92cddc;fill-opacity:1;fill-rule:evenodd;stroke:none;stroke-width:0.03527781"
       id="path896-1-2-3-7-5-7-8-4"
       inkscape:connector-curvature="0" />
    <rect
       style="opacity:1;fill:#92cddc;fill-opacity:1;fill-rule:evenodd;stroke:#000000;stroke-width:2.39400005;stroke-linecap:square;stroke-linejoin:round;stroke-miterlimit:10;stroke-dasharray:none;stroke-dashoffset:0;stroke-opacity:1;paint-order:stroke fill markers"
       id="rect2241-6"
       width="55.019527"
       height="27.261492"
       x="389.99716"
       y="138.06975" />
    <text
       xml:space="preserve"
       style="font-style:normal;font-variant:normal;font-weight:bold;font-stretch:normal;font-size:11.28888893px;line-height:1.25;font-family:'Deja Vu Sans';-inkscape-font-specification:'Deja Vu Sans Bold';font-variant-ligatures:normal;font-variant-position:normal;font-variant-caps:normal;font-variant-numeric:normal;font-variant-alternates:normal;font-feature-settings:normal;text-indent:0;text-align:start;text-decoration:none;text-decoration-line:none;text-decoration-style:solid;text-decoration-color:#000000;letter-spacing:0px;word-spacing:0px;text-transform:none;writing-mode:lr-tb;direction:ltr;text-orientation:mixed;dominant-baseline:auto;baseline-shift:baseline;text-anchor:start;white-space:normal;shape-padding:0;opacity:1;vector-effect:none;fill:#000000;fill-opacity:1;stroke:none;stroke-width:0.26458332;stroke-linecap:butt;stroke-linejoin:miter;stroke-miterlimit:4;stroke-dasharray:none;stroke-dashoffset:0;stroke-opacity:1"
       x="400.70941"
       y="156.77838"
       id="text2245-1"><tspan
         sodipodi:role="line"
         id="tspan2243-8"
         x="400.70941"
         y="156.77838"
         style="stroke-width:0.26458332">PTPD</tspan></text>
    <rect
       style="opacity:1;fill:#92cddc;fill-opacity:1;fill-rule:evenodd;stroke:#000000;stroke-width:2.39400005;stroke-linecap:square;stroke-linejoin:round;stroke-miterlimit:10;stroke-dasharray:14.3640003, 2.39400005;stroke-dashoffset:0;stroke-opacity:1;paint-order:stroke fill markers"
       id="rect2241-7"
       width="55.019535"
       height="41.159508"
       x="389.99716"
       y="86.856171" />
    <text
       xml:space="preserve"
       style="font-style:normal;font-variant:normal;font-weight:bold;font-stretch:normal;font-size:11.28888893px;line-height:1.25;font-family:'Deja Vu Sans';-inkscape-font-specification:'Deja Vu Sans Bold';font-variant-ligatures:normal;font-variant-position:normal;font-variant-caps:normal;font-variant-numeric:normal;font-variant-alternates:normal;font-feature-settings:normal;text-indent:0;text-align:start;text-decoration:none;text-decoration-line:none;text-decoration-style:solid;text-decoration-color:#000000;letter-spacing:0px;word-spacing:0px;text-transform:none;writing-mode:lr-tb;direction:ltr;text-orientation:mixed;dominant-baseline:auto;baseline-shift:baseline;text-anchor:start;white-space:normal;shape-padding:0;opacity:1;vector-effect:none;fill:#000000;fill-opacity:1;stroke:none;stroke-width:0.26458332;stroke-linecap:butt;stroke-linejoin:miter;stroke-miterlimit:4;stroke-dasharray:none;stroke-dashoffset:0;stroke-opacity:1"
       x="416.96472"
       y="104.50677"
       id="text2245-9"><tspan
         sodipodi:role="line"
         id="tspan2243-2"
         x="416.96472"
         y="104.50677"
         style="text-align:center;text-anchor:middle;stroke-width:0.26458332">iperf</tspan><tspan
         sodipodi:role="line"
         x="416.96472"
         y="118.61788"
         style="text-align:center;text-anchor:middle;stroke-width:0.26458332"
         id="tspan2280">server</tspan></text>
    <path
       style="fill:none;stroke:#000000;stroke-width:1.86500001;stroke-linecap:butt;stroke-linejoin:miter;stroke-miterlimit:4;stroke-dasharray:11.19, 1.865;stroke-dashoffset:0;stroke-opacity:1"
       d="m 193.27315,75.528958 h -37.79761 m 92.60416,0.377976 h 51.40477 v 33.261896"
       id="path2353"
       inkscape:connector-curvature="0" />
    <path
       style="fill:none;stroke:#000000;stroke-width:1.86500001;stroke-linecap:butt;stroke-linejoin:miter;stroke-miterlimit:4;stroke-dasharray:none;stroke-opacity:1"
       d="m 315.03757,132.10724 h 17.77344"
       id="path2355"
       inkscape:connector-curvature="0" />
    <path
       style="fill:none;stroke:#000000;stroke-width:1.86500001;stroke-linecap:butt;stroke-linejoin:miter;stroke-miterlimit:4;stroke-dasharray:7.46000018, 1.86500005;stroke-dashoffset:0;stroke-opacity:1"
       d="m 315.03757,124.69886 h 17.77344"
       id="path2355-2"
       inkscape:connector-curvature="0"
       inkscape:transform-center-x="5.6126601"
       inkscape:transform-center-y="0.13363998" />
    <path
       style="fill:none;stroke:#000000;stroke-width:1.86500001;stroke-linecap:butt;stroke-linejoin:miter;stroke-miterlimit:4;stroke-dasharray:none;stroke-opacity:1"
       d="m 356.93683,131.8474 h 16.44198 v 20.97768 h 15.49701"
       id="path2372"
       inkscape:connector-curvature="0" />
    <path
       style="fill:none;stroke:#000000;stroke-width:1.86500001;stroke-linecap:butt;stroke-linejoin:miter;stroke-miterlimit:4;stroke-dasharray:7.46000018, 1.86500005;stroke-dashoffset:0;stroke-opacity:1"
       d="m 356.9989,124.35643 h 16.03616 v -15.63527 h 15.50165"
       id="path2374"
       inkscape:connector-curvature="0" />
    <rect
       style="opacity:1;fill:#92cddc;fill-opacity:1;fill-rule:evenodd;stroke:#000000;stroke-width:1.86500025;stroke-linecap:square;stroke-linejoin:round;stroke-miterlimit:4;stroke-dasharray:none;stroke-dashoffset:0;stroke-opacity:1;paint-order:stroke fill markers"
       id="rect2303-2"
       width="111.71867"
       height="60.908699"
       x="343.90274"
       y="196.73491" />
    <path
       d="m 334.54834,243.0799 c -0.3657,-0.15591 -0.5911,-0.44106 -0.7018,-0.87318 -0.052,-0.22884 -0.077,-4.41314 -0.065,-14.46392 l 0.026,-14.14043 0.1894,-0.30174 c 0.103,-0.16098 0.5164,-0.68653 0.9181,-1.16211 0.77771,-0.91667 1.1975,-1.23884 1.77711,-1.37857 0.23819,-0.0511 2.64049,-0.0767 8.1678,-0.0511 l 7.8334,0.0255 0.3618,0.17005 c 0.2782,0.13163 0.5486,0.38612 1.1847,1.11484 0.4558,0.51778 0.9142,1.09054 1.0249,1.26822 l 0.2034,0.32218 0.026,14.14467 c 0.013,10.05117 0,14.2348 -0.064,14.4597 -0.1159,0.43595 -0.336,0.71593 -0.7017,0.87317 -0.2962,0.13288 -0.7108,0.13542 -10.0861,0.13542 -9.3793,0 -9.7946,-0.004 -10.0907,-0.13542 z m 19.58432,-15.13727 -0.013,-13.97948 h -18.96201 l -0.013,13.97948 -0.026,13.97951 h 19.03661 z m -9.8689,10.65716 c -0.3889,-0.10226 -0.64511,-0.31323 -0.82281,-0.65714 -0.2601,-0.5229 -0.1853,-1.04324 0.20341,-1.44261 0.29619,-0.2979 0.56139,-0.40785 0.98889,-0.40785 1.0198,0 1.6436,0.95504 1.20141,1.83678 -0.1764,0.3439 -0.45841,0.5651 -0.86921,0.67504 -0.3412,0.0896 -0.35789,0.0896 -0.70169,-0.004 z m -0.27041,-4.65412 c -1.2065,-0.70828 -0.7558,-2.41323 0.64,-2.41323 0.8704,0 1.4803,0.72871 1.3164,1.57353 -0.052,0.28765 -0.4056,0.7121 -0.7249,0.87063 -0.3,0.14831 -0.9529,0.13161 -1.231,-0.0385 z m -6.11051,-7.16081 c -0.2072,-0.10224 -0.3966,-0.27618 -0.4983,-0.45003 -0.1687,-0.2787 -0.1713,-0.30555 -0.1417,-2.4048 0.013,-1.16723 0.026,-2.1854 0.026,-2.26556 0,-0.0767 -0.01,-1.09052 -0.01,-2.24522 0,-2.01013 0,-2.10807 0.1545,-2.29907 0.2227,-0.2851 0.48671,-0.45896 0.82281,-0.53439 0.3889,-0.0896 12.4182,-0.0896 12.80741,0 0.3361,0.0767 0.6001,0.24929 0.82279,0.53439 0.1494,0.19056 0.15451,0.28894 0.15451,2.29907 0,1.15444 -0.01,2.16377 -0.01,2.24522 0,0.0767 0,1.0982 0.026,2.26556 0.026,2.09925 0.026,2.12558 -0.1417,2.4048 -0.103,0.17512 -0.291,0.34902 -0.4983,0.45003 l -0.331,0.17007 h -12.84372 z m 12.82072,-2.74592 v -1.62018 h -12.14032 v 3.23671 h 12.14032 z m 0,-4.57341 v -1.65433 h -12.14032 v 3.31399 h 12.14032 z m 2.24849,-6.89769 c 0,-0.0385 -0.1326,-0.18274 -0.29999,-0.32346 l -0.30131,-0.26209 h -15.44491 l -0.3541,0.32217 -0.3489,0.32216 h 8.37121 c 4.80241,0.004 8.3763,-0.0256 8.3763,-0.064 z"
       style="fill:#000000;fill-opacity:1;fill-rule:nonzero;stroke:none;stroke-width:0.03527781"
       id="path888-5-1-6-1-5-3-0-6-8"
       inkscape:connector-curvature="0" />
    <path
       d="m 335.21104,231.47248 c 0.103,-5.63804 0.1713,-11.85382 0.1713,-13.80129 v -3.54301 h 18.64872 v 27.60744 h -18.98802 z m 10.38731,6.8863 c 1.33331,-1.28166 -0.5704,-3.15319 -1.9714,-1.93468 -0.5782,0.5037 -0.6001,1.04322 -0.064,1.77271 0.4725,0.64561 1.4536,0.72107 2.0418,0.16224 z m -0.1738,-4.47167 c 0.6361,-0.42831 0.7829,-1.55757 0.2652,-2.05386 -0.5047,-0.48326 -1.9623,-0.36436 -2.2666,0.18676 -0.3978,0.71335 -0.3309,1.20044 0.246,1.75645 0.6232,0.59833 0.994,0.61879 1.7543,0.11514 z m 6.3178,-7.23802 c 0.4288,-0.36947 0.4777,-0.86554 0.4777,-4.84934 0,-4.1077 -0.039,-4.47604 -0.52149,-4.93424 -0.49061,-0.47175 -0.86271,-0.50116 -6.93181,-0.50116 -5.38931,0 -6.51261,0.064 -6.99321,0.38994 -0.5614,0.3733 -0.5743,0.50883 -0.5743,5.08251 0,4.21345 0.052,4.72599 0.4507,4.95507 0.2743,0.15337 3.0494,0.2557 7.03811,0.25953 5.7695,0.009 6.6402,-0.0385 7.0554,-0.4027 z"
       style="fill:#92cddc;fill-opacity:1;fill-rule:evenodd;stroke:none;stroke-width:0.03527781"
       id="path890-6-8-5-1-6-1-7-2-9"
       inkscape:connector-curvature="0" />
    <path
       d="m 338.75014,224.0772 v -1.49338 h 11.91482 v 2.98252 h -11.91482 z"
       style="fill:#92cddc;fill-opacity:1;fill-rule:evenodd;stroke:none;stroke-width:0.03527781"
       id="path892-2-7-6-5-1-9-8-5-7"
       inkscape:connector-curvature="0" />
    <path
       d="m 338.75014,219.47433 v -1.61598 h 11.91482 v 3.23208 h -11.91482 z"
       style="fill:#92cddc;fill-opacity:1;fill-rule:evenodd;stroke:none;stroke-width:0.03527781"
       id="path894-9-9-9-9-1-4-6-4-3"
       inkscape:connector-curvature="0" />
    <path
       d="m 336.61595,212.3166 0.30909,-0.30554 h 15.40531 l 0.2473,0.24931 0.2485,0.24673 -4.8773,0.064 c -2.6815,0.0382 -6.4014,0.064 -8.2619,0.064 h -3.38371 z"
       style="fill:#92cddc;fill-opacity:1;fill-rule:evenodd;stroke:none;stroke-width:0.03527781"
       id="path896-1-2-3-7-5-7-8-4-6"
       inkscape:connector-curvature="0" />
    <rect
       style="opacity:1;fill:#92cddc;fill-opacity:1;fill-rule:evenodd;stroke:#000000;stroke-width:2.39400005;stroke-linecap:square;stroke-linejoin:round;stroke-miterlimit:10;stroke-dasharray:none;stroke-dashoffset:0;stroke-opacity:1;paint-order:stroke fill markers"
       id="rect2241-6-1"
       width="55.019527"
       height="27.261492"
       x="389.99716"
       y="212.0567" />
    <text
       xml:space="preserve"
       style="font-style:normal;font-variant:normal;font-weight:bold;font-stretch:normal;font-size:11.28888893px;line-height:1.25;font-family:'Deja Vu Sans';-inkscape-font-specification:'Deja Vu Sans Bold';font-variant-ligatures:normal;font-variant-position:normal;font-variant-caps:normal;font-variant-numeric:normal;font-variant-alternates:normal;font-feature-settings:normal;text-indent:0;text-align:start;text-decoration:none;text-decoration-line:none;text-decoration-style:solid;text-decoration-color:#000000;letter-spacing:0px;word-spacing:0px;text-transform:none;writing-mode:lr-tb;direction:ltr;text-orientation:mixed;dominant-baseline:auto;baseline-shift:baseline;text-anchor:start;white-space:normal;shape-padding:0;opacity:1;vector-effect:none;fill:#000000;fill-opacity:1;stroke:none;stroke-width:0.26458332;stroke-linecap:butt;stroke-linejoin:miter;stroke-miterlimit:4;stroke-dasharray:none;stroke-dashoffset:0;stroke-opacity:1"
       x="405.47198"
       y="230.76526"
       id="text2245-1-2"><tspan
         sodipodi:role="line"
         id="tspan2243-8-9"
         x="405.47198"
         y="230.76526"
         style="stroke-width:0.26458332">NFS</tspan></text>
    <path
       style="fill:none;stroke:#000000;stroke-width:1.86500001;stroke-linecap:butt;stroke-linejoin:miter;stroke-miterlimit:4;stroke-dasharray:1.86500005, 1.86500005;stroke-dashoffset:0;stroke-opacity:1"
       d="M 67.854831,215.74878 V 194.01515"
       id="path2284-4"
       inkscape:connector-curvature="0" />
    <path
       style="fill:none;stroke:#000000;stroke-width:1.86500001;stroke-linecap:butt;stroke-linejoin:miter;stroke-miterlimit:4;stroke-dasharray:1.865, 1.865;stroke-dashoffset:0;stroke-opacity:1"
       d="m 152.41391,195.68991 v 12.85119 h 39.12054 v 7.74852"
       id="path2522"
       inkscape:connector-curvature="0" />
    <path
       style="fill:none;stroke:#000000;stroke-width:1.86500001;stroke-linecap:butt;stroke-linejoin:miter;stroke-miterlimit:4;stroke-dasharray:1.865, 1.865;stroke-dashoffset:0;stroke-opacity:1"
       d="m 229.52106,196.16239 v 12.45477 c -0.27546,-0.44917 -36.00223,0 -36.00223,0 v 5.78257"
       id="path2524"
       inkscape:connector-curvature="0" />
    <path
       style="fill:none;stroke:#000000;stroke-width:1.86500001;stroke-linecap:butt;stroke-linejoin:miter;stroke-miterlimit:4;stroke-dasharray:1.865, 1.865;stroke-dashoffset:0;stroke-opacity:1"
       d="m 67.834749,244.9804 v 25.52424 H 304.36826 V 137.13715"
       id="path2535"
       inkscape:connector-curvature="0" />
    <path
       style="fill:none;stroke:#000000;stroke-width:1.86500001;stroke-linecap:butt;stroke-linejoin:miter;stroke-miterlimit:4;stroke-dasharray:1.865, 1.865;stroke-dashoffset:0;stroke-opacity:1"
       d="M 388.02364,226.40517 H 355.9513"
       id="path2537"
       inkscape:connector-curvature="0" />
    <path
       style="fill:none;stroke:#000000;stroke-width:1.86500001;stroke-linecap:butt;stroke-linejoin:miter;stroke-miterlimit:4;stroke-dasharray:1.865, 1.865;stroke-dashoffset:0;stroke-opacity:1"
       d="M 332.51956,227.25093 H 309.08504 V 137.67057"
       id="path2539"
       inkscape:connector-curvature="0" />
    <path
       style="fill:none;stroke:#000000;stroke-width:1.86500013;stroke-linecap:butt;stroke-linejoin:miter;stroke-miterlimit:4;stroke-dasharray:1.86500014, 1.86500014;stroke-dashoffset:0;stroke-opacity:1"
       d="M 194.74724,260.60734 V 244.54335"
       id="path2284-4-5"
       inkscape:connector-curvature="0" />
  </g>
</svg>
